<svg width="800" height="800" viewBox="0 0 800 800" fill="none" xmlns="http://www.w3.org/2000/svg">
  <defs>
    <linearGradient id="glassGradient" x1="0" y1="0" x2="1" y2="1">
      <stop offset="0%" stop-color="#FAD0C4" />
      <stop offset="100%" stop-color="#F7A1BC" />
    </linearGradient>
    <radialGradient id="shine" cx="0.5" cy="0.3" r="0.7">
      <stop offset="0%" stop-color="#ffffff" stop-opacity="0.9" />
      <stop offset="100%" stop-color="#ffffff" stop-opacity="0" />
    </radialGradient>
  </defs>
  <rect x="50" y="120" width="210" height="520" rx="38" fill="url(#glassGradient)" />
  <rect x="140" y="60" width="68" height="220" rx="24" fill="#fff" fill-opacity="0.88" />
  <circle cx="180" cy="180" r="48" fill="#fff" fill-opacity="0.75" />
  <ellipse cx="160" cy="366" rx="74" ry="190" fill="#fff" fill-opacity="0.12" />
  <rect x="340" y="200" width="330" height="380" rx="40" fill="#fff" />
  <path d="M360 220C360 193.49 382.49 171 409 171H641C667.51 171 690 193.49 690 220V500C690 526.51 667.51 549 641 549H409C382.49 549 360 526.51 360 500V220Z" fill="#E4B7CB" />
  <path d="M402 220H638V280H402V220Z" fill="#F9D9E0" />
  <path d="M420 354C420 329.49 441.49 308 466 308H574C598.51 308 620 329.49 620 354V446C620 470.51 598.51 492 574 492H466C441.49 492 420 470.51 420 446V354Z" fill="url(#glassGradient)" />
  <path d="M500 540C500 520.346 515.346 505 535 505H575C594.654 505 610 520.346 610 540V635C610 654.654 594.654 670 575 670H535C515.346 670 500 654.654 500 635V540Z" fill="#F8B7CF" />
  <circle cx="190" cy="160" r="80" fill="url(#shine)" />
  <circle cx="560" cy="270" r="100" fill="#fff" fill-opacity="0.20" />
  <circle cx="640" cy="120" r="52" fill="#fff" fill-opacity="0.28" />
  <circle cx="520" cy="640" r="110" fill="#fff" fill-opacity="0.16" />
</svg>
